# xmcd CD database file
#
# Track frame offsets:
#	150
#	3766
#	20556
#	20862
#	38514
#	52885
#	53898
#	67596
#	84605
#	100074
#	100535
#	119098
#	137229
#	152420
#	152735
#	164802
#	181734
#	182235
#	196400
#	213937
#	214851
#
# Disc length: 3232 seconds
#
# Revision: 0
# Processed by: cddbd v1.5.1PL0 Copyright (c) Steve Scherf et al.
# Submitted via: CDex 1.51
#
DISCID=140c9e15
DTITLE=Desperate Housewife artists - Desperate Housewife
DYEAR=2005
DGENRE=Country
TTITLE0=Mary Alice
TTITLE1=God Bless The American Housewife
TTITLE2=Edie
TTITLE3=Shoes
TTITLE4=Band Of Gold
TTITLE5=Lynette
TTITLE6=Mother's Little Helper
TTITLE7=Mrs. Robinson
TTITLE8=Harper Valley PTA
TTITLE9=Bree
TTITLE10=We're Running Out Of Time
TTITLE11=Treat Me Right(I'm Yours For Life)
TTITLE12=One's Of The Way
TTITLE13=Gabrielle
TTITLE14=Boom Boom
TTITLE15=Young Hearts Run Free
TTITLE16=Susan
TTITLE17=Damsel in Distress
TTITLE18=Dream Of The EveryDay Housewife
TTITLE19=Mary Alice
TTITLE20=Desperate Housewife Theme
EXTD=YEAR: 2005
EXTT0=
EXTT1=
EXTT2=
EXTT3=
EXTT4=
EXTT5=
EXTT6=
EXTT7=
EXTT8=
EXTT9=
EXTT10=
EXTT11=
EXTT12=
EXTT13=
EXTT14=
EXTT15=
EXTT16=
EXTT17=
EXTT18=
EXTT19=
EXTT20=
PLAYORDER=
